<svg xmlns="http://www.w3.org/2000/svg" viewBox="0 0 900 900"><defs><style>.cls-1{fill:#222;}.cls-1,.cls-2,.cls-3,.cls-5{stroke:#231f20;}.cls-1,.cls-2,.cls-3,.cls-4,.cls-5{stroke-miterlimit:10;}.cls-2{fill:#212121;}.cls-3,.cls-4{fill:#333;}.cls-4{stroke:#000;}.cls-5{fill:#298e5c;}.cls-6{fill:#fff;}</style></defs><g id="Laptop"><polyline class="cls-1" points="743.07 594.25 744.15 607.91 450.56 777.42 449.48 763.75 450.56 777.42 97.98 573.86 96.91 560.2"/><polyline class="cls-1" points="390.5 390.69 422.97 129.1 791.94 316.05 743.07 594.25"/><polyline class="cls-2" points="390.36 391.44 96.77 560.94 449.34 764.5 742.93 594.99 390.36 391.44"/><path class="cls-3" d="M393.43,418.46,691.59,590.6a6.91,6.91,0,0,1,0,11.95L511.28,706.65a14,14,0,0,1-13.92,0L199.2,534.51a6.91,6.91,0,0,1,0-12l180.31-104.1A14,14,0,0,1,393.43,418.46Z"/><path class="cls-4" d="M271.85,589.54l105.44,61.05a6.93,6.93,0,0,1,0,12L350.42,678.1a15.46,15.46,0,0,1-15.43,0l-105.6-61a6.93,6.93,0,0,1,0-12l27-15.6A15.41,15.41,0,0,1,271.85,589.54Z"/><polyline class="cls-1" points="422.97 129.1 791.94 316.05 743.07 594.25 754.36 587.73 803.23 309.53 791.94 316.05 803.23 309.53 434.26 122.58 422.97 129.1"/></g><g id="OS_UI" data-name="OS UI"><path class="cls-5" d="M408,376.82l28.28-215.37a4.94,4.94,0,0,1,7.37-3.62L771.56,323.76a6.14,6.14,0,0,1,3,6.15L733.45,561.84a4.93,4.93,0,0,1-7.36,3.63L411,383A6.15,6.15,0,0,1,408,376.82Z"/><path class="cls-6" d="M651.58,383.69A66.44,66.44,0,1,1,597.3,278.93h.07a59,59,0,1,0,54.21,104.76Z"/><path class="cls-6" d="M615.09,321.85l5.27-8.52a1.94,1.94,0,0,1,3.45.33l3.55,9.37a1.92,1.92,0,0,0,1.35,1.19l9.73,2.39a1.92,1.92,0,0,1,.75,3.37l-7.82,6.28a1.94,1.94,0,0,0-.71,1.65l.74,10a1.93,1.93,0,0,1-3,1.75L620,344.17a1.91,1.91,0,0,0-1.78-.17L609,347.79a1.93,1.93,0,0,1-2.59-2.29l2.63-9.68a1.92,1.92,0,0,0-.39-1.75l-6.47-7.65a1.92,1.92,0,0,1,1.38-3.17l10-.49A2,2,0,0,0,615.09,321.85Z"/></g></svg>