<svg xmlns="http://www.w3.org/2000/svg" viewBox="0 0 900 900"><defs><style>.cls-1{fill:#222;}.cls-1,.cls-2,.cls-3,.cls-5{stroke:#231f20;}.cls-1,.cls-2,.cls-3,.cls-4,.cls-5{stroke-miterlimit:10;}.cls-2{fill:#212121;}.cls-3,.cls-4{fill:#333;}.cls-4{stroke:#000;}.cls-5{fill:#298e5c;}.cls-6{fill:#fff;}</style></defs><g id="Laptop"><polyline class="cls-1" points="743.07 594.25 744.15 607.91 450.56 777.42 449.48 763.75 450.56 777.42 97.98 573.86 96.91 560.2"/><polyline class="cls-1" points="390.5 390.69 422.97 129.1 791.94 316.05 743.07 594.25"/><polyline class="cls-2" points="390.36 391.44 96.77 560.94 449.34 764.5 742.93 594.99 390.36 391.44"/><path class="cls-3" d="M393.43,418.46,691.59,590.6a6.91,6.91,0,0,1,0,11.95L511.28,706.65a14,14,0,0,1-13.92,0L199.2,534.51a6.91,6.91,0,0,1,0-12l180.31-104.1A14,14,0,0,1,393.43,418.46Z"/><path class="cls-4" d="M271.85,589.54l105.44,61.05a6.93,6.93,0,0,1,0,12L350.42,678.1a15.46,15.46,0,0,1-15.43,0l-105.6-61a6.93,6.93,0,0,1,0-12l27-15.6A15.41,15.41,0,0,1,271.85,589.54Z"/><polyline class="cls-1" points="422.97 129.1 791.94 316.05 743.07 594.25 754.36 587.73 803.23 309.53 791.94 316.05 803.23 309.53 434.26 122.58 422.97 129.1"/></g><g id="OS_UI" data-name="OS UI"><path class="cls-5" d="M408,376.82l28.28-215.37a4.94,4.94,0,0,1,7.37-3.62L771.56,323.76a6.14,6.14,0,0,1,3,6.15L733.45,561.84a4.93,4.93,0,0,1-7.36,3.63L411,383A6.15,6.15,0,0,1,408,376.82Z"/><path class="cls-6" d="M651.58,383.69A66.44,66.44,0,1,1,597.3,278.93h.07a59,59,0,1,0,54.21,104.76Z"/><path class="cls-6" d="M615.09,321.85l5.27-8.52a1.94,1.94,0,0,1,3.45.33l3.55,9.37a1.92,1.92,0,0,0,1.35,1.19l9.73,2.39a1.92,1.92,0,0,1,.75,3.37l-7.82,6.28a1.94,1.94,0,0,0-.71,1.65l.74,10a1.93,1.93,0,0,1-3,1.75L620,344.17a1.91,1.91,0,0,0-1.78-.17L609,347.79a1.93,1.93,0,0,1-2.59-2.29l2.63-9.68a1.92,1.92,0,0,0-.39-1.75l-6.47-7.65a1.92,1.92,0,0,1,1.38-3.17l10-.49A2,2,0,0,0,615.09,321.85Z"/><path class="cls-6" d="M481.13,326.8l2.49-4a.91.91,0,0,1,1.62.16l1.67,4.41a.92.92,0,0,0,.64.56l4.58,1.13a.91.91,0,0,1,.36,1.59l-3.68,2.95a.91.91,0,0,0-.34.78l.35,4.71a.92.92,0,0,1-1.41.83l-4-2.59a.87.87,0,0,0-.84-.08L478.25,339a.91.91,0,0,1-1.22-1.08l1.24-4.55a.92.92,0,0,0-.18-.83l-3-3.6a.91.91,0,0,1,.65-1.5l4.71-.22A.92.92,0,0,0,481.13,326.8Z"/><path class="cls-6" d="M701.34,371.75l2.49-4a.91.91,0,0,1,1.62.16l1.68,4.41a.89.89,0,0,0,.63.56l4.59,1.13a.91.91,0,0,1,.35,1.59l-3.68,3a.88.88,0,0,0-.34.77L709,384a.92.92,0,0,1-1.41.83l-4-2.59a.87.87,0,0,0-.84-.08L698.46,384a.9.9,0,0,1-1.22-1.07l1.24-4.56a.92.92,0,0,0-.18-.83l-3-3.6a.9.9,0,0,1,.65-1.49l4.72-.23A.92.92,0,0,0,701.34,371.75Z"/><path class="cls-6" d="M628.22,445.6l2.49-4a.91.91,0,0,1,1.62.16l1.67,4.41a.91.91,0,0,0,.63.56l4.59,1.13a.91.91,0,0,1,.35,1.59l-3.68,3a.87.87,0,0,0-.33.77l.34,4.71a.91.91,0,0,1-1.4.83l-4-2.59a.87.87,0,0,0-.84-.08l-4.37,1.78a.9.9,0,0,1-1.22-1.07l1.24-4.56a.92.92,0,0,0-.18-.83l-3-3.6a.9.9,0,0,1,.64-1.49l4.72-.23A.94.94,0,0,0,628.22,445.6Z"/><path class="cls-6" d="M675,308l2.48-4a.92.92,0,0,1,1.63.15l1.67,4.42a.91.91,0,0,0,.63.56l4.59,1.12a.91.91,0,0,1,.35,1.59l-3.68,3a.93.93,0,0,0-.34.78l.35,4.71a.9.9,0,0,1-1.4.82l-4-2.59a.93.93,0,0,0-.84-.08l-4.37,1.79a.91.91,0,0,1-1.22-1.08l1.24-4.56a.88.88,0,0,0-.19-.82l-3-3.61a.91.91,0,0,1,.65-1.49l4.72-.23A.89.89,0,0,0,675,308Z"/><path class="cls-6" d="M442.7,348.4l2.49-4a.91.91,0,0,1,1.62.16l1.67,4.42a1,1,0,0,0,.64.56l4.58,1.12a.91.91,0,0,1,.36,1.59l-3.69,3a.9.9,0,0,0-.33.77l.35,4.71a.92.92,0,0,1-1.41.83l-4-2.59a.92.92,0,0,0-.84-.08l-4.37,1.79a.91.91,0,0,1-1.22-1.08l1.24-4.56a.9.9,0,0,0-.18-.82l-3.05-3.61a.9.9,0,0,1,.65-1.49l4.71-.23A.92.92,0,0,0,442.7,348.4Z"/><path class="cls-6" d="M467,197.72l2.49-4a.91.91,0,0,1,1.62.16l1.67,4.42a.92.92,0,0,0,.64.56L478,200a.91.91,0,0,1,.36,1.59l-3.69,3a.9.9,0,0,0-.33.77l.35,4.71a.92.92,0,0,1-1.41.83l-3.95-2.59a.92.92,0,0,0-.84-.08l-4.37,1.79a.91.91,0,0,1-1.22-1.08l1.24-4.56a.9.9,0,0,0-.18-.82l-3.05-3.61a.9.9,0,0,1,.65-1.49l4.71-.23A.94.94,0,0,0,467,197.72Z"/><path class="cls-6" d="M510.75,405.62l2.48-4a.91.91,0,0,1,1.62.15l1.68,4.42a.89.89,0,0,0,.63.56l4.59,1.12a.91.91,0,0,1,.35,1.59l-3.68,3a.93.93,0,0,0-.34.78l.35,4.7a.9.9,0,0,1-1.4.83l-3.95-2.59a.93.93,0,0,0-.84-.08l-4.38,1.79a.9.9,0,0,1-1.21-1.08l1.24-4.56a.91.91,0,0,0-.19-.82l-3.05-3.61a.91.91,0,0,1,.65-1.49l4.72-.23A.89.89,0,0,0,510.75,405.62Z"/><path class="cls-6" d="M550.49,233.74l2.49-4a.91.91,0,0,1,1.62.15l1.67,4.42a.91.91,0,0,0,.63.56l4.59,1.12a.91.91,0,0,1,.35,1.59l-3.68,3a.89.89,0,0,0-.33.77l.34,4.71a.91.91,0,0,1-1.4.83l-3.95-2.59a.92.92,0,0,0-.84-.08L547.61,246a.91.91,0,0,1-1.22-1.08l1.24-4.56a.9.9,0,0,0-.18-.82l-3.05-3.61a.9.9,0,0,1,.64-1.49l4.72-.23A.89.89,0,0,0,550.49,233.74Z"/><path class="cls-6" d="M721.45,440.9l2.49-4a.91.91,0,0,1,1.62.16l1.68,4.41a.89.89,0,0,0,.63.56l4.59,1.13a.91.91,0,0,1,.35,1.59l-3.68,2.95a.91.91,0,0,0-.34.78l.35,4.71a.9.9,0,0,1-1.4.82l-4-2.58a.92.92,0,0,0-.85-.09l-4.37,1.79a.91.91,0,0,1-1.22-1.08l1.24-4.55a.92.92,0,0,0-.18-.83l-3-3.6a.91.91,0,0,1,.65-1.5l4.72-.23A.89.89,0,0,0,721.45,440.9Z"/><path class="cls-6" d="M481.13,265.68l2.49-4a.91.91,0,0,1,1.62.15l1.67,4.42a.92.92,0,0,0,.64.56l4.58,1.12a.91.91,0,0,1,.36,1.59l-3.68,3a.9.9,0,0,0-.34.77l.35,4.71a.92.92,0,0,1-1.41.83l-4-2.59a.92.92,0,0,0-.84-.08l-4.37,1.79a.91.91,0,0,1-1.22-1.08l1.24-4.56a.9.9,0,0,0-.18-.82l-3-3.61a.9.9,0,0,1,.65-1.49l4.71-.23A.88.88,0,0,0,481.13,265.68Z"/><path class="cls-6" d="M689.16,511.5l3.44-3.24a.9.9,0,0,1,1.52.57l.48,4.7a.91.91,0,0,0,.47.7l4.14,2.27a.91.91,0,0,1-.07,1.63l-4.32,1.9a.91.91,0,0,0-.53.67l-.88,4.64a.91.91,0,0,1-1.57.43l-3.14-3.52a.92.92,0,0,0-.8-.29l-4.68.59a.9.9,0,0,1-.9-1.35l2.38-4.08a.91.91,0,0,0,0-.85l-2-4.27a.9.9,0,0,1,1-1.27l4.61,1A.91.91,0,0,0,689.16,511.5Z"/><path class="cls-6" d="M745.59,332.59l3.44-3.24a.91.91,0,0,1,1.53.57l.48,4.7a.9.9,0,0,0,.46.7l4.14,2.27a.91.91,0,0,1-.07,1.63l-4.32,1.9a.9.9,0,0,0-.52.67l-.88,4.64a.91.91,0,0,1-1.57.43l-3.15-3.52a.9.9,0,0,0-.79-.29l-4.68.59a.9.9,0,0,1-.9-1.35l2.37-4.08a.94.94,0,0,0,0-.85l-2-4.27a.9.9,0,0,1,1-1.27l4.62,1A.89.89,0,0,0,745.59,332.59Z"/></g></svg>