<svg xmlns="http://www.w3.org/2000/svg" viewBox="0 0 900 900"><defs><style>.cls-1{fill:#222;}.cls-1,.cls-2,.cls-3,.cls-5{stroke:#231f20;}.cls-1,.cls-2,.cls-3,.cls-4,.cls-5{stroke-miterlimit:10;}.cls-2{fill:#212121;}.cls-3,.cls-4{fill:#333;}.cls-4{stroke:#000;}.cls-5{fill:#298e5c;}.cls-6{fill:#fff;}</style></defs><g id="Laptop"><polyline class="cls-1" points="743.07 594.25 744.15 607.91 450.56 777.42 449.48 763.75 450.56 777.42 97.98 573.86 96.91 560.2"/><polyline class="cls-1" points="390.5 390.69 422.97 129.1 791.94 316.05 743.07 594.25"/><polyline class="cls-2" points="390.36 391.44 96.77 560.94 449.34 764.5 742.93 594.99 390.36 391.44"/><path class="cls-3" d="M393.43,418.46,691.59,590.6a6.91,6.91,0,0,1,0,11.95L511.28,706.65a14,14,0,0,1-13.92,0L199.2,534.51a6.91,6.91,0,0,1,0-12l180.31-104.1A14,14,0,0,1,393.43,418.46Z"/><path class="cls-4" d="M271.85,589.54l105.44,61.05a6.93,6.93,0,0,1,0,12L350.42,678.1a15.46,15.46,0,0,1-15.43,0l-105.6-61a6.93,6.93,0,0,1,0-12l27-15.6A15.41,15.41,0,0,1,271.85,589.54Z"/><polyline class="cls-1" points="422.97 129.1 791.94 316.05 743.07 594.25 754.36 587.73 803.23 309.53 791.94 316.05 803.23 309.53 434.26 122.58 422.97 129.1"/></g><g id="OS_UI" data-name="OS UI"><path class="cls-5" d="M408,376.82l28.28-215.37a4.94,4.94,0,0,1,7.37-3.62L771.56,323.76a6.14,6.14,0,0,1,3,6.15L733.45,561.84a4.93,4.93,0,0,1-7.36,3.63L411,383A6.15,6.15,0,0,1,408,376.82Z"/><path class="cls-6" d="M431.74,359.71l1.11-1.8a.41.41,0,0,1,.73.07l.75,2a.41.41,0,0,0,.28.25l2.05.5a.41.41,0,0,1,.16.71l-1.65,1.32a.44.44,0,0,0-.15.35l.16,2.1a.41.41,0,0,1-.63.37l-1.76-1.15a.4.4,0,0,0-.38,0l-2,.8a.41.41,0,0,1-.55-.48l.55-2a.38.38,0,0,0-.08-.37L429,360.67a.41.41,0,0,1,.29-.67l2.11-.1A.42.42,0,0,0,431.74,359.71Z"/><path class="cls-6" d="M692.63,457.08,649,435a3.28,3.28,0,0,1-1.16-4.42l5.41-11.11A36.51,36.51,0,0,0,656,394.41a28.71,28.71,0,0,0-8.52-14.3l1.82-3.74,1.29.66a1.35,1.35,0,0,0,1.13,0,1.73,1.73,0,0,0,.87-.82A1.66,1.66,0,0,0,652,374l-1.24-.62,5-10.28,1.29.65a1.32,1.32,0,0,0,1.13,0,1.72,1.72,0,0,0,.87-.82,1.64,1.64,0,0,0-.6-2.23l-1.23-.63,5-10.28,1.3.65a1.32,1.32,0,0,0,1.13,0,1.83,1.83,0,0,0,.89-.87,1.6,1.6,0,0,0-.56-2.16l-1.3-.65,3.26-6.69,1.83.93a.86.86,0,0,0,.72,0,1.15,1.15,0,0,0,.56-.55,11,11,0,0,0,.83-7.52,8.46,8.46,0,0,0-3.14-4.76,1.1,1.1,0,0,1-.34-1.28l1.36-3.85-2.18,3.46a1.06,1.06,0,0,1-1.19.51,8.19,8.19,0,0,0-5.49.37,10.62,10.62,0,0,0-5.36,5.21,1,1,0,0,0,.35,1.38l1.7.86-3.25,6.69-1.3-.66a1.35,1.35,0,0,0-1.13,0,1.75,1.75,0,0,0-.85.79,1.67,1.67,0,0,0,.58,2.27l1.23.62-5,10.28-1.29-.65a1.32,1.32,0,0,0-1.13,0,1.81,1.81,0,0,0-1,1.14,1.6,1.6,0,0,0,.73,1.91l1.24.62-5,10.29-1.29-.66a1.39,1.39,0,0,0-1.13,0,1.81,1.81,0,0,0-1,1.15,1.57,1.57,0,0,0,.72,1.9l1.24.63-1.66,3.41c-13.35-3.68-28.58,3.95-35.78,18.76l11.08-22.77a36.51,36.51,0,0,0,2.75-25.06,27.89,27.89,0,0,0-12.07-17,1.41,1.41,0,0,1-.41-1.82l1.52-3.13a1.08,1.08,0,0,1,1.21-.62,4.54,4.54,0,0,0,3.56-.62s0,0,0,0A3.7,3.7,0,0,1,607,322c-2.06-1-2.78-3.81-1.62-6.19a4.82,4.82,0,0,1,4.08-2.84h0a4.67,4.67,0,0,0-5.61,1.32,5.92,5.92,0,0,0-1,6.51,1.19,1.19,0,0,1,0,1.07l-1.91,3.93a1.36,1.36,0,0,1-1.67.77c-13.94-5.58-30.77,2.05-38.46,17.86l-11.09,22.78a36.48,36.48,0,0,0,2.76-25.07,28.36,28.36,0,0,0-10-15.51l1.63-3.36,1.3.66a1.35,1.35,0,0,0,1.13,0,1.75,1.75,0,0,0,.86-.82,1.66,1.66,0,0,0-.59-2.24l-1.24-.62,5-10.28,1.29.65a1.32,1.32,0,0,0,1.13,0,1.72,1.72,0,0,0,.87-.82,1.64,1.64,0,0,0-.6-2.23l-1.23-.63,5-10.28,1.29.65a1.32,1.32,0,0,0,1.13,0,1.83,1.83,0,0,0,.89-.87,1.6,1.6,0,0,0-.56-2.16l-1.29-.65,3.25-6.69,1.83.93a.86.86,0,0,0,.72,0,1.17,1.17,0,0,0,.57-.55,11,11,0,0,0,.82-7.52,8.46,8.46,0,0,0-3.14-4.76,1.12,1.12,0,0,1-.34-1.28l1.37-3.85-2.19,3.46a1.06,1.06,0,0,1-1.19.51,8.16,8.16,0,0,0-5.48.37,10.64,10.64,0,0,0-5.37,5.21,1,1,0,0,0,.35,1.38l1.7.86-3.25,6.69-1.3-.66a1.33,1.33,0,0,0-1.12,0,1.71,1.71,0,0,0-.86.8,1.66,1.66,0,0,0,.58,2.26l1.24.62-5,10.28-1.29-.65a1.32,1.32,0,0,0-1.13,0,1.75,1.75,0,0,0-.87.81,1.66,1.66,0,0,0,.6,2.24l1.23.62-5,10.29-1.3-.65a1.35,1.35,0,0,0-1.13,0,1.75,1.75,0,0,0-.86.82,1.65,1.65,0,0,0,.59,2.24l1.23.62-1.85,3.81C519,319.26,504.86,326.86,498,341l-5.41,11.11a3.16,3.16,0,0,1-4.15,1.74L451,334.91"/><path class="cls-6" d="M453.79,204l1.11-1.79a.4.4,0,0,1,.72.07l.75,2a.39.39,0,0,0,.28.25l2.05.5a.41.41,0,0,1,.16.72l-1.64,1.32a.38.38,0,0,0-.15.34l.15,2.11a.41.41,0,0,1-.63.37l-1.76-1.16a.39.39,0,0,0-.38,0l-1.95.79A.41.41,0,0,1,452,209l.56-2a.43.43,0,0,0-.08-.36L451.06,205a.4.4,0,0,1,.29-.66l2.11-.11A.39.39,0,0,0,453.79,204Z"/><path class="cls-6" d="M482.85,361.54l1.11-1.79a.4.4,0,0,1,.72.07l.75,2a.43.43,0,0,0,.29.25l2,.5a.4.4,0,0,1,.15.71l-1.64,1.32a.41.41,0,0,0-.15.35l.15,2.11a.4.4,0,0,1-.62.37l-1.77-1.16a.42.42,0,0,0-.38,0l-1.95.8a.41.41,0,0,1-.55-.48l.56-2a.45.45,0,0,0-.08-.37l-1.37-1.61a.41.41,0,0,1,.29-.67l2.11-.1A.4.4,0,0,0,482.85,361.54Z"/><path class="cls-6" d="M505.88,280.77,507,279a.4.4,0,0,1,.72.07l.75,2a.41.41,0,0,0,.29.25l2.05.51a.4.4,0,0,1,.15.71l-1.64,1.32a.38.38,0,0,0-.15.34l.15,2.11a.4.4,0,0,1-.62.37l-1.77-1.16a.42.42,0,0,0-.38,0l-2,.8a.42.42,0,0,1-.55-.49l.56-2a.44.44,0,0,0-.08-.37l-1.37-1.61a.41.41,0,0,1,.29-.67l2.11-.1A.41.41,0,0,0,505.88,280.77Z"/><path class="cls-6" d="M509.9,412.93l1.11-1.79a.41.41,0,0,1,.73.07l.75,2a.37.37,0,0,0,.28.25l2.05.5a.41.41,0,0,1,.16.72L513.33,416a.4.4,0,0,0-.15.34l.16,2.11a.41.41,0,0,1-.63.37l-1.77-1.16a.38.38,0,0,0-.37,0l-2,.79a.4.4,0,0,1-.54-.48l.55-2a.37.37,0,0,0-.08-.36l-1.36-1.62a.4.4,0,0,1,.29-.66l2.11-.11A.37.37,0,0,0,509.9,412.93Z"/><path class="cls-6" d="M627.22,480.85l1.12-1.8a.41.41,0,0,1,.72.07l.75,2a.41.41,0,0,0,.28.25l2,.5a.41.41,0,0,1,.16.71l-1.65,1.32a.44.44,0,0,0-.15.35l.16,2.1a.41.41,0,0,1-.63.37l-1.76-1.15a.4.4,0,0,0-.38,0l-1.95.8a.41.41,0,0,1-.55-.48l.56-2a.41.41,0,0,0-.09-.37l-1.36-1.61a.41.41,0,0,1,.29-.67l2.11-.1A.42.42,0,0,0,627.22,480.85Z"/><path class="cls-6" d="M692.53,386.51l1.11-1.8a.4.4,0,0,1,.72.07l.75,2a.39.39,0,0,0,.28.25l2.05.51a.41.41,0,0,1,.16.71L696,389.54a.39.39,0,0,0-.16.35L696,392a.41.41,0,0,1-.63.37l-1.76-1.16a.42.42,0,0,0-.38,0l-2,.8a.41.41,0,0,1-.55-.49l.56-2a.41.41,0,0,0-.09-.37l-1.36-1.61a.41.41,0,0,1,.29-.67l2.11-.1A.45.45,0,0,0,692.53,386.51Z"/><path class="cls-6" d="M466.06,260.38l1.11-1.79a.4.4,0,0,1,.72.07l.75,2a.41.41,0,0,0,.28.25l2.06.5a.4.4,0,0,1,.15.71l-1.64,1.33a.38.38,0,0,0-.15.34l.15,2.11a.41.41,0,0,1-.63.37l-1.76-1.16a.42.42,0,0,0-.38,0l-2,.8a.41.41,0,0,1-.55-.48l.56-2a.43.43,0,0,0-.08-.36l-1.37-1.62a.4.4,0,0,1,.29-.66l2.11-.11A.37.37,0,0,0,466.06,260.38Z"/><path class="cls-6" d="M675.42,484.8l1.11-1.79a.4.4,0,0,1,.72.07l.75,2a.41.41,0,0,0,.29.25l2.05.5a.41.41,0,0,1,.15.72l-1.64,1.32a.38.38,0,0,0-.15.34l.15,2.11a.4.4,0,0,1-.62.37l-1.77-1.16a.39.39,0,0,0-.38,0l-2,.79a.4.4,0,0,1-.54-.48l.55-2a.43.43,0,0,0-.08-.36l-1.37-1.62a.4.4,0,0,1,.29-.66l2.11-.11A.37.37,0,0,0,675.42,484.8Z"/><path class="cls-6" d="M755.33,338.77l1.12-1.8a.4.4,0,0,1,.72.07l.75,2a.39.39,0,0,0,.28.25l2,.51a.41.41,0,0,1,.16.71l-1.65,1.32a.41.41,0,0,0-.15.35l.16,2.1a.41.41,0,0,1-.63.37l-1.76-1.16a.43.43,0,0,0-.38,0l-2,.8a.41.41,0,0,1-.55-.49l.55-2a.38.38,0,0,0-.08-.37l-1.36-1.61a.41.41,0,0,1,.29-.67L755,339A.42.42,0,0,0,755.33,338.77Z"/><path class="cls-6" d="M615.92,268l1.12-1.8a.41.41,0,0,1,.72.07l.75,2a.41.41,0,0,0,.28.25l2.05.5a.41.41,0,0,1,.16.71L619.35,271a.44.44,0,0,0-.15.35l.16,2.11a.41.41,0,0,1-.63.37L617,272.67a.43.43,0,0,0-.38,0l-2,.8a.41.41,0,0,1-.55-.48l.56-2a.41.41,0,0,0-.09-.37l-1.36-1.61a.41.41,0,0,1,.29-.67l2.11-.1A.42.42,0,0,0,615.92,268Z"/><path class="cls-6" d="M590.08,424l1.12-1.8a.41.41,0,0,1,.72.07l.75,2a.41.41,0,0,0,.28.25l2,.5a.41.41,0,0,1,.16.71l-1.65,1.32a.44.44,0,0,0-.15.35l.16,2.11a.41.41,0,0,1-.63.37l-1.76-1.16a.43.43,0,0,0-.38,0l-2,.8a.41.41,0,0,1-.55-.48l.55-2a.38.38,0,0,0-.08-.37L587.36,425a.41.41,0,0,1,.29-.67l2.11-.1A.42.42,0,0,0,590.08,424Z"/><path class="cls-6" d="M447.16,303.53l1.11-1.79a.41.41,0,0,1,.73.07l.75,2a.41.41,0,0,0,.28.25l2.05.5a.41.41,0,0,1,.16.71l-1.65,1.33a.4.4,0,0,0-.15.34l.16,2.11a.41.41,0,0,1-.63.37l-1.76-1.16a.43.43,0,0,0-.38,0l-1.95.8a.41.41,0,0,1-.55-.48l.55-2a.39.39,0,0,0-.08-.37l-1.36-1.61a.41.41,0,0,1,.29-.67l2.11-.1A.39.39,0,0,0,447.16,303.53Z"/><path class="cls-6" d="M655.25,286.16l1.11-1.79a.4.4,0,0,1,.72.07l.75,2a.41.41,0,0,0,.29.25l2,.51a.4.4,0,0,1,.15.71l-1.64,1.32a.39.39,0,0,0-.15.35l.15,2.1a.4.4,0,0,1-.62.37l-1.77-1.16a.42.42,0,0,0-.38,0l-1.95.8a.41.41,0,0,1-.54-.49l.55-2a.44.44,0,0,0-.08-.37l-1.37-1.61a.41.41,0,0,1,.29-.67l2.11-.1A.41.41,0,0,0,655.25,286.16Z"/><path class="cls-6" d="M513.94,219.79l1.11-1.8a.41.41,0,0,1,.72.07l.75,2a.44.44,0,0,0,.28.25l2.05.5a.41.41,0,0,1,.16.71l-1.64,1.32a.39.39,0,0,0-.15.35l.15,2.1a.4.4,0,0,1-.63.37L515,224.49a.4.4,0,0,0-.38,0l-2,.8a.41.41,0,0,1-.55-.48l.56-2a.44.44,0,0,0-.08-.37l-1.37-1.61a.41.41,0,0,1,.29-.67l2.11-.1A.44.44,0,0,0,513.94,219.79Z"/><path class="cls-6" d="M740.59,378.59l1.11-1.79a.41.41,0,0,1,.73.07l.74,2a.41.41,0,0,0,.29.25l2,.51a.4.4,0,0,1,.15.71L744,381.63a.39.39,0,0,0-.15.35l.15,2.1a.4.4,0,0,1-.62.37l-1.77-1.16a.42.42,0,0,0-.38,0l-2,.8a.41.41,0,0,1-.54-.49l.55-2a.41.41,0,0,0-.08-.37l-1.37-1.61a.41.41,0,0,1,.29-.67l2.11-.1A.41.41,0,0,0,740.59,378.59Z"/><path class="cls-6" d="M722.59,433.87l1.11-1.79a.41.41,0,0,1,.73.07l.74,2a.41.41,0,0,0,.29.25l2,.5a.4.4,0,0,1,.15.71L726,436.91a.38.38,0,0,0-.15.34l.15,2.11a.4.4,0,0,1-.62.37l-1.77-1.16a.42.42,0,0,0-.38,0l-2,.8a.4.4,0,0,1-.54-.48l.55-2a.42.42,0,0,0-.08-.37l-1.37-1.61a.4.4,0,0,1,.29-.66l2.11-.11A.37.37,0,0,0,722.59,433.87Z"/><path class="cls-6" d="M712.83,502.3l1.11-1.79a.41.41,0,0,1,.73.07l.74,2a.43.43,0,0,0,.29.25l2,.5a.41.41,0,0,1,.16.71l-1.65,1.32a.44.44,0,0,0-.15.35l.15,2.11a.4.4,0,0,1-.62.37L713.87,507a.41.41,0,0,0-.37,0l-2,.8a.4.4,0,0,1-.54-.48l.55-2a.42.42,0,0,0-.08-.37l-1.36-1.61a.41.41,0,0,1,.29-.67l2.1-.1A.4.4,0,0,0,712.83,502.3Z"/><path class="cls-6" d="M704.78,311.44l1.11-1.79a.41.41,0,0,1,.73.07l.75,2a.39.39,0,0,0,.28.25l2.05.5a.41.41,0,0,1,.16.71l-1.65,1.33a.4.4,0,0,0-.15.34l.16,2.11a.41.41,0,0,1-.63.37l-1.77-1.16a.41.41,0,0,0-.37,0l-2,.8a.4.4,0,0,1-.54-.48l.55-2a.39.39,0,0,0-.08-.37l-1.36-1.61a.41.41,0,0,1,.29-.67l2.11-.1A.39.39,0,0,0,704.78,311.44Z"/><path class="cls-6" d="M572.84,260.38l1.11-1.79a.41.41,0,0,1,.73.07l.75,2a.37.37,0,0,0,.28.25l2,.5a.41.41,0,0,1,.16.71l-1.65,1.33a.4.4,0,0,0-.15.34l.16,2.11a.41.41,0,0,1-.63.37l-1.77-1.16a.41.41,0,0,0-.37,0l-2,.8a.4.4,0,0,1-.54-.48l.55-2a.37.37,0,0,0-.08-.36l-1.36-1.62a.4.4,0,0,1,.29-.66l2.11-.11A.37.37,0,0,0,572.84,260.38Z"/><path class="cls-6" d="M631.25,307.49l1.11-1.8a.41.41,0,0,1,.72.07l.75,2a.44.44,0,0,0,.29.26l2,.5a.4.4,0,0,1,.15.71l-1.64,1.32a.39.39,0,0,0-.15.35l.15,2.1a.4.4,0,0,1-.62.37l-1.77-1.16a.42.42,0,0,0-.38,0L630,313a.4.4,0,0,1-.54-.48l.55-2a.44.44,0,0,0-.08-.37l-1.37-1.61a.41.41,0,0,1,.29-.67l2.11-.1A.42.42,0,0,0,631.25,307.49Z"/></g></svg>